# xmcd
#
# Track frame offsets: 
#        150
#        17595
#        35820
#        56117
#        68890
#        97297
#        108495
#        132095
#        161875
#        181277
#        207212
#
# Disc length: 3100 seconds
#
# Revision: 2
# Processed by: cddbd v1.5.2PL0 Copyright (c) Steve Scherf et al.
# Submitted via: ExactAudioCopy v0.99pb4
#
DISCID=a20c1a0b
DTITLE=Kenny Drew and Niels Pedersen - Duo 2
DYEAR=1974
DGENRE=Jazz
TTITLE0=Jeg Gik Mig Over So Og Land
TTITLE1=Largo
TTITLE2=My Little Suede Shoes
TTITLE3=Trubbel
TTITLE4=Bluesology
TTITLE5=That's All
TTITLE6=You Don't Know What Love Is
TTITLE7=Viking's Blues
TTITLE8=A Child Is Born
TTITLE9=It Might As Well Be Spring
TTITLE10=My Shining Hour
EXTD=YEAR: 1990
EXTT0=
EXTT1=
EXTT2=
EXTT3=
EXTT4=
EXTT5=
EXTT6=
EXTT7=
EXTT8=
EXTT9=
EXTT10=
PLAYORDER=
